<svg width="1600" height="1000" viewBox="0 0 1600 1000" fill="none" xmlns="http://www.w3.org/2000/svg">
  <rect width="1600" height="1000" fill="url(#background)"/>
  <circle cx="1280" cy="184" r="220" fill="url(#glowOne)" opacity="0.8"/>
  <circle cx="312" cy="820" r="260" fill="url(#glowTwo)" opacity="0.75"/>
  <path d="M118 790C246 610 374 520 522 520C668 520 738 610 870 610C1020 610 1116 498 1268 404C1354 352 1458 316 1586 306V1000H118V790Z" fill="url(#wave)" opacity="0.92"/>
  <rect x="208" y="184" width="592" height="456" rx="34" fill="white" fill-opacity="0.72"/>
  <rect x="252" y="230" width="504" height="284" rx="24" fill="#E0F2FE"/>
  <path d="M252 456L374 344L486 436L582 322L756 514H252V456Z" fill="#38BDF8"/>
  <circle cx="646" cy="320" r="42" fill="#0EA5E9"/>
  <rect x="252" y="546" width="196" height="18" rx="9" fill="#CBD5E1"/>
  <rect x="252" y="580" width="312" height="18" rx="9" fill="#E2E8F0"/>
  <g filter="url(#cardShadow)">
    <rect x="920" y="256" width="440" height="308" rx="36" fill="white" fill-opacity="0.84"/>
  </g>
  <text x="980" y="364" fill="#0F172A" font-family="Arial, Helvetica, sans-serif" font-size="60" font-weight="700">Gallery Preview</text>
  <text x="980" y="432" fill="#475569" font-family="Arial, Helvetica, sans-serif" font-size="28" font-weight="500">Sample image for missing artwork</text>
  <text x="980" y="486" fill="#475569" font-family="Arial, Helvetica, sans-serif" font-size="28" font-weight="500">Local fallback stored with the view</text>
  <rect x="980" y="596" width="208" height="56" rx="28" fill="#0EA5E9"/>
  <text x="1041" y="632" fill="white" font-family="Arial, Helvetica, sans-serif" font-size="24" font-weight="700">Fallback</text>
  <defs>
    <linearGradient id="background" x1="0" y1="0" x2="1600" y2="1000" gradientUnits="userSpaceOnUse">
      <stop stop-color="#F8FAFC"/>
      <stop offset="0.52" stop-color="#E0F2FE"/>
      <stop offset="1" stop-color="#DBEAFE"/>
    </linearGradient>
    <radialGradient id="glowOne" cx="0" cy="0" r="1" gradientUnits="userSpaceOnUse" gradientTransform="translate(1280 184) rotate(90) scale(220)">
      <stop stop-color="#67E8F9"/>
      <stop offset="1" stop-color="#67E8F9" stop-opacity="0"/>
    </radialGradient>
    <radialGradient id="glowTwo" cx="0" cy="0" r="1" gradientUnits="userSpaceOnUse" gradientTransform="translate(312 820) rotate(90) scale(260)">
      <stop stop-color="#93C5FD"/>
      <stop offset="1" stop-color="#93C5FD" stop-opacity="0"/>
    </radialGradient>
    <linearGradient id="wave" x1="118" y1="332" x2="1120" y2="1110" gradientUnits="userSpaceOnUse">
      <stop stop-color="#0EA5E9"/>
      <stop offset="1" stop-color="#0284C7"/>
    </linearGradient>
    <filter id="cardShadow" x="884" y="228" width="512" height="380" filterUnits="userSpaceOnUse" color-interpolation-filters="sRGB">
      <feFlood flood-opacity="0" result="BackgroundImageFix"/>
      <feColorMatrix in="SourceAlpha" type="matrix" values="0 0 0 0 0 0 0 0 0 0 0 0 0 0 0 0 0 0 127 0" result="hardAlpha"/>
      <feOffset dy="8"/>
      <feGaussianBlur stdDeviation="18"/>
      <feComposite in2="hardAlpha" operator="out"/>
      <feColorMatrix type="matrix" values="0 0 0 0 0.0588235 0 0 0 0 0.164706 0 0 0 0 0.294118 0 0 0 0.16 0"/>
      <feBlend mode="normal" in2="BackgroundImageFix" result="effect1_dropShadow_307_12"/>
      <feBlend mode="normal" in="SourceGraphic" in2="effect1_dropShadow_307_12" result="shape"/>
    </filter>
  </defs>
</svg>
